<svg width="12" height="10" viewBox="0 0 12 10" fill="none" xmlns="http://www.w3.org/2000/svg">
<path d="M11.856 5C11.856 5.17708 11.783 5.33333 11.6372 5.46875L7.60596 9.49219C7.47054 9.6224 7.31689 9.6875 7.14502 9.6875C6.97314 9.6875 6.82731 9.63021 6.70752 9.51562C6.59294 9.40104 6.53564 9.25521 6.53564 9.07812C6.53564 8.99479 6.54867 8.91406 6.57471 8.83594C6.60596 8.75781 6.65023 8.69271 6.70752 8.64062L7.78564 7.52344L10.4263 5.14844L10.5669 5.48438L8.48877 5.63281H1.11377C0.92627 5.63281 0.775228 5.57292 0.660645 5.45312C0.546061 5.33333 0.48877 5.18229 0.48877 5C0.48877 4.81771 0.546061 4.66667 0.660645 4.54688C0.775228 4.42708 0.92627 4.36719 1.11377 4.36719H8.48877L10.5669 4.51562L10.4263 4.85938L7.78564 2.47656L6.70752 1.35938C6.65023 1.30729 6.60596 1.24219 6.57471 1.16406C6.54867 1.08594 6.53564 1.00521 6.53564 0.921875C6.53564 0.744792 6.59294 0.598958 6.70752 0.484375C6.82731 0.369792 6.97314 0.3125 7.14502 0.3125C7.31689 0.3125 7.47054 0.377604 7.60596 0.507812L11.6372 4.53125C11.783 4.66667 11.856 4.82292 11.856 5Z" fill="white"/>
</svg>
